<svg width="374" height="285" viewBox="0 0 374 285" fill="none" xmlns="http://www.w3.org/2000/svg">
<g clip-path="url(#clip0_17_74)">
<path d="M333.399 97.7377C333.399 118.082 321.213 127.409 312.044 146.457C310.024 150.653 315.431 151.947 311.12 156.657C309.371 158.567 302.317 160.178 298.913 152.33C298.318 150.958 299.595 152.175 298.887 152.273C291.534 153.294 206.68 161.633 201.688 162.135C197.723 162.533 203.793 153.599 201.748 161.933C199.446 171.312 196.776 193.229 195.337 193.612C209.471 185.242 237.163 187.221 251.308 186.509C256.351 186.256 258.965 187.904 259.424 189.853C262.787 204.1 217.697 220.353 194.533 227.809C171.369 235.265 148.191 240.021 127.566 241.708C46.4608 248.343 2.94197 204.123 43.7709 133.73C48.6012 125.402 58.1261 119.054 61.6563 108.047C64.2412 99.9876 64.3637 89.9312 70.6477 84.1283C76.1012 79.0924 101.801 79.0597 105.672 76.1865C122.803 63.471 141.651 54.5361 166.933 44.8736C239.062 17.3066 333.399 16.3615 333.399 97.7377Z" fill="#212529"/>
<path d="M49.9854 205.73L75.7868 90.606L116.841 85.5445L126.12 154.999L168.018 80.4831L209.916 75.7028L184.278 195.037L149.178 198.303L164.362 136.722L127.245 200.833L102.781 203.645L96.9904 143.937L84.2226 205.895L48.8728 209.154L49.9854 205.73Z" fill="white"/>
<path d="M307.37 96.1584L314.712 64.0057L220.466 74.5438L212.512 106.755L307.37 96.1584Z" fill="white"/>
<path d="M292.045 110.334L210.922 119.082L204.161 150.1L286.08 140.954L292.045 110.334Z" fill="white"/>
<path d="M298.93 152.263L201.775 162.123L195.413 193.538L257.806 187.786L298.93 152.263Z" fill="white"/>
<path d="M137.353 45.5142C145.953 41.9414 165.78 35.1565 192.276 27.8304C199.401 25.8604 208.388 23.5467 218.537 21.4556C231.116 18.8638 245.377 16.6361 259.898 15.8078C272.764 15.0739 285.288 15.4731 296.63 17.4458C307.819 19.3915 317.101 22.7359 324.399 27.3626C328.171 29.7532 331.347 32.4435 334.002 35.3956C336.837 38.5485 339.097 42.021 340.864 45.7923C342.851 50.0336 344.198 54.6187 345.037 59.4684C346.078 65.4832 346.286 71.5887 346.128 77.3936C346.061 79.8349 345.932 82.1723 345.784 84.3572C344.62 101.604 340.526 121.278 339.882 127.265C339.733 128.647 339.998 129.317 340.018 129.731C340.319 129.453 340.986 129.157 341.835 128.046C345.624 123.087 355.936 105.554 360.289 86.5621C360.836 84.1764 361.335 81.5595 361.731 78.7755C362.664 72.219 363.027 64.743 362.121 57.0444C361.385 50.7914 359.821 44.4756 357.124 38.4056C354.712 32.9779 351.464 27.9066 347.301 23.3398C343.411 19.0723 338.844 15.3789 333.658 12.2737C323.701 6.31229 311.894 2.77274 299.071 1.12564C286.057 -0.545978 272.23 -0.240204 258.657 1.28298C243.29 3.00746 228.495 6.2612 215.713 9.82627C205.361 12.7136 196.335 15.8017 189.223 18.4816C162.725 28.4652 145.073 40.4998 137.353 45.5142Z" fill="#6CBD45"/>
<path d="M373.953 105.154C368.338 116.384 356.885 133.766 334.569 154.792C332.341 156.891 329.954 159.067 327.394 161.309C311.184 175.511 290.225 190.449 263.514 204.697C241.187 216.608 217.795 226.432 195.667 233.729C184.716 237.34 174.496 240.192 165.295 242.337C155.739 244.564 147.52 245.974 140.726 246.748C140.557 246.767 140.388 246.787 140.221 246.805C117.384 249.328 96.3176 248.917 77.8584 245.963C59.0381 242.952 44.225 237.511 33.3224 231.006C27.3178 227.424 22.6044 223.587 18.9499 219.723C16.6195 217.259 14.721 214.786 13.1764 212.351C11.9617 210.435 10.8844 208.451 9.96516 206.383C7.69076 201.266 6.50781 195.91 6.40276 190.305C6.25309 182.317 8.34606 175.271 10.1363 170.847C7.59973 174.663 3.47147 181.253 1.35961 189.694C-0.150095 195.729 -0.535543 202.32 0.884686 209.185C1.45802 211.956 2.30831 214.681 3.42876 217.334C4.85427 220.709 6.76608 224.163 9.25607 227.618C13.1672 233.046 18.4184 238.354 25.1794 243.257C37.4318 252.143 54.0927 259.286 74.7377 263.355C94.9707 267.343 117.902 268.153 142.28 265.465C142.471 265.442 142.663 265.422 142.856 265.4C150.544 264.521 159.528 262.87 169.652 260.332C179.413 257.886 190.127 254.643 201.468 250.58C224.341 242.386 248.388 231.356 271.007 218.05C298.052 202.139 319.202 185.272 334.855 169.148C337.333 166.595 339.623 164.112 341.739 161.712C362.848 137.752 370.359 116.582 373.953 105.154Z" fill="#6CBD45"/>
<path d="M80.3035 275.344C80.69 275.395 81.2938 275.436 82.2545 275.481C82.9325 275.513 83.8391 275.549 84.9444 275.588C86.695 275.65 89.3001 275.732 92.4447 275.809C94.1055 275.849 95.9585 275.889 97.999 275.926C101.828 275.994 107.619 276.013 114.967 275.763C130.628 275.23 154.364 273.441 181.182 267.961C211.798 261.706 236.501 252.718 257.059 242.68C261.611 240.458 265.559 238.384 268.938 236.564C278.351 231.494 287.658 225.788 292.773 222.531C295.494 220.798 298.396 218.89 301.344 216.805C310.482 210.341 323.079 199.989 327.215 195.872C323.223 202.625 316.601 213.481 306.571 224.005C303.809 226.903 301.096 229.574 298.411 232.037C292.528 237.432 284.755 243.69 273.531 250.372C269.879 252.545 265.558 254.914 260.603 257.345C238.569 268.152 211.22 276.674 180.028 281.067C152.287 284.974 128.519 284.644 112.945 283.363C105.581 282.757 100.05 281.948 96.2454 281.272C94.2555 280.919 92.4713 280.537 90.8884 280.141C87.8178 279.374 85.5677 278.572 83.9593 277.832C82.9743 277.379 82.2409 276.955 81.6924 276.578C80.9312 276.055 80.5335 275.628 80.3035 275.344Z" fill="#6CBD45"/>
</g>
<defs>
<clipPath id="clip0_17_74">
<rect width="373.953" height="284.233" fill="white"/>
</clipPath>
</defs>
</svg>
